#N canvas 0 22 1052 635 10;
#X declare -lib mrpeach;
#X obj 85 243 unpackOSC;
#X obj 187 158 unpack 0 0 0 0;
#X floatatom 187 189 3 0 0 0 - - -;
#X floatatom 218 189 3 0 0 0 - - -;
#X floatatom 250 189 3 0 0 0 - - -;
#X floatatom 282 189 3 0 0 0 - - -;
#X obj 96 281 print unpacked;
#X text 317 188 <-- la connexion se fait depuis l'ordinateur ayant
cette adresse IP;
#X obj 85 58 import mrpeach;
#X text 197 56 <-- la déclaration de la bibliothèque;
#X floatatom 86 429 10 0 0 0 - - -;
#X obj 86 392 f;
#X text 446 328 <-- [routeOSC] permet de sélectionner les messages
envoyés selon le sélecteur. l'argument 'message' peut être changé mais
doit correspondre à l'argument employé par [udpsend];
#X obj 505 425 print other_messages;
#X obj 85 118 udpreceive 7000;
#X obj 86 465 print accX;
#X text 217 114 <-- L'argument '7000' correspond au 'port' sur lequel
le udpsend se branchera;
#X floatatom 167 430 10 0 0 0 - - -;
#X obj 167 393 f;
#X floatatom 243 430 10 0 0 0 - - -;
#X obj 243 393 f;
#X obj 167 466 print accY;
#X obj 243 466 print accZ;
#X obj 86 331 routeOSC /osc/accX /osc/accY /osc/accZ;
#X connect 0 0 6 0;
#X connect 0 0 23 0;
#X connect 1 0 2 0;
#X connect 1 1 3 0;
#X connect 1 2 4 0;
#X connect 1 3 5 0;
#X connect 10 0 15 0;
#X connect 11 0 10 0;
#X connect 14 0 1 0;
#X connect 14 0 0 0;
#X connect 17 0 21 0;
#X connect 18 0 17 0;
#X connect 19 0 22 0;
#X connect 20 0 19 0;
#X connect 23 0 11 0;
#X connect 23 1 18 0;
#X connect 23 2 20 0;
#X connect 23 3 13 0;
