#N canvas 0 22 877 542 10;
#X declare -lib mrpeach;
#X obj 318 138 unpackOSC;
#X obj 329 176 print unpacked;
#X obj 134 52 import mrpeach;
#X floatatom 186 371 10 0 0 0 - - -;
#X obj 430 257 print other_messages;
#X text 246 50 <-- import OSC library;
#X obj 318 101 udpreceive 7400;
#X obj 319 226 routeOSC /movuinOSC;
#X obj 319 290 unpack f f f f f f;
#X floatatom 258 371 10 0 0 0 - - -;
#X floatatom 563 371 10 0 0 0 - - -;
#X floatatom 485 371 10 0 0 0 - - -;
#X floatatom 409 371 10 0 0 0 - - -;
#X floatatom 334 371 10 0 0 0 - - -;
#X text 199 400 AccX;
#X text 581 400 GyrZ;
#X text 498 400 GyrY;
#X text 423 400 GyrX;
#X text 350 400 AccZ;
#X text 269 400 AccY;
#X connect 0 0 1 0;
#X connect 0 0 7 0;
#X connect 6 0 0 0;
#X connect 7 0 8 0;
#X connect 7 1 4 0;
#X connect 8 0 3 0;
#X connect 8 1 9 0;
#X connect 8 2 13 0;
#X connect 8 3 12 0;
#X connect 8 4 11 0;
#X connect 8 5 10 0;
